<?xml version="1.0" encoding="UTF-8" standalone="no"?>
<!-- Created with Inkscape (http://www.inkscape.org/) -->

<svg
   width="297mm"
   height="210mm"
   viewBox="0 0 297 210"
   version="1.1"
   id="svg5"
   sodipodi:docname="Reed Diagram Black copy.svg"
   inkscape:version="1.1 (c4e8f9e, 2021-05-24)"
   xmlns:inkscape="http://www.inkscape.org/namespaces/inkscape"
   xmlns:sodipodi="http://sodipodi.sourceforge.net/DTD/sodipodi-0.dtd"
   xmlns="http://www.w3.org/2000/svg"
   xmlns:svg="http://www.w3.org/2000/svg">
  <sodipodi:namedview
     id="namedview7"
     pagecolor="#ffffff"
     bordercolor="#666666"
     borderopacity="1.0"
     inkscape:pageshadow="2"
     inkscape:pageopacity="0.0"
     inkscape:pagecheckerboard="0"
     inkscape:document-units="mm"
     showgrid="false"
     inkscape:zoom="0.43196831"
     inkscape:cx="503.50916"
     inkscape:cy="451.422"
     inkscape:window-width="1440"
     inkscape:window-height="786"
     inkscape:window-x="0"
     inkscape:window-y="25"
     inkscape:window-maximized="0"
     inkscape:current-layer="layer1" />
  <defs
     id="defs2" />
  <g
     inkscape:label="Layer 1"
     inkscape:groupmode="layer"
     id="layer1">
    <rect
       style="opacity:1;fill:#000000;fill-opacity:0;stroke-width:2;stroke-miterlimit:4;stroke-dasharray:none"
       id="rect3214"
       width="91.628571"
       height="133.02423"
       x="-53.488762"
       y="65.116753" />
    <g
       id="rect4458"
       transform="matrix(0,1.1555785,-0.94163095,0,287.50592,-16.001633)"
       style="fill:#ffffff">
      <path
         id="path4684"
         style="color:#000000;fill:#ffffff;fill-opacity:0;stroke-width:7.55906;-inkscape-stroke:none"
         transform="scale(0.26458333)"
         d="M 366.32422,35.357422 V 1073.9551 H 402.5625 V 35.357422 Z m 17.04883,6.636719 c 0.19821,5.4e-4 0.39615,0.01238 0.59179,0.03711 0.33597,0.04247 0.60943,0.223204 0.81836,0.425781 0.30374,-0.09531 0.61419,-0.124731 0.91407,-0.05078 0.62988,0.155314 0.87491,0.908633 1.2207,1.503906 0.59783,-0.09509 0.83192,-0.05634 1.50976,-0.185547 -0.42697,0.183103 -0.8723,0.331175 -1.30468,0.503907 0.008,0.131296 0.042,0.264601 0.0234,0.394531 -0.0865,0.571998 -0.21392,1.13939 -0.39062,1.691406 3.01967,-2.076287 5.24838,-2.712275 4.17773,2.535156 0.4497,1.327691 0.45204,1.120523 0.41993,2.238282 -0.0159,0.517058 -0.0121,1.561052 0.0469,2.27539 -0.042,1.993308 -0.44966,3.797574 -0.10156,5.794922 0.44787,4.232315 0.16762,1.887255 0.67578,5.666016 0.11565,0.859226 0.0541,1.766174 0.36328,2.576172 0.91608,2.400888 1.4063,3.241379 2.66016,5.859375 0.73606,2.076257 1.60403,4.112296 2.20898,6.230468 0.40687,1.42447 0.60368,2.901374 0.81836,4.367188 0.32829,2.243059 0.63436,4.491712 0.80859,6.751953 0.096,1.242667 0,2.493878 0,3.740234 v 10.095699 c 0,6.47483 -2.85951,10.1179 -6.07812,10.92969 -0.21025,5.25046 -0.44807,10.45143 -0.57227,13.74219 -0.0665,1.76164 -0.12978,3.52347 -0.19531,5.28515 0.40029,10.06971 0.87354,20.13612 1.41602,30.19922 0.10896,2.02416 0.31385,4.04344 0.4707,6.06446 0.0711,2.79944 1.83816,6.11602 0.21289,8.39648 -2.68811,3.7718 -4.9166,5.68941 -6.93164,6.24609 0.4078,5.86703 0.6855,11.71193 0.70898,17.60938 0.009,2.27643 -0.091,4.55192 -0.125,6.82812 -0.14815,10.04073 -0.1228,7.74806 -0.125,15.96875 0.0752,3.62624 0.12183,7.25342 0.22657,10.87891 1.88571,3.09605 1.27148,10.7823 1.27148,13.17578 v 26.92188 c 0,0.54726 -0.17395,0.89455 -0.25,1.35937 -2.3e-4,0.16993 0,0.33984 0,0.50977 v 3.10156 c 0.47629,0.0619 0.87669,0.24267 1.03125,0.70703 1.97688,5.93916 -0.12356,12.51809 -0.18555,18.77734 -0.27354,6.78086 -0.36965,9.36607 -0.55273,14.05079 0.80999,9.91914 1.79908,19.82627 2.72852,29.73437 2.70591,28.84692 4.21321,39.96043 7.40234,65.82227 0.23486,0.97799 0.47037,1.95755 0.70508,2.93554 1.15241,4.79891 -3.74396,5.94962 -4.85352,1.14063 -0.26642,-1.15487 -0.53237,-2.30997 -0.79883,-3.46485 -0.20716,-1.6804 -0.29513,-2.62681 -0.49023,-4.20312 v 2.10351 c 0.25771,1.79369 0.29639,3.43965 0,4.80469 v 43.34375 c 0,7.31382 -3.65006,11.00762 -7.34375,11.09571 0.0164,0.34608 0.0559,0.69091 0.0703,1.03711 0.16177,3.88094 0,7.76793 0,11.65234 v 5.49805 c 0.55908,-0.4036 1.13441,-0.75947 1.69531,-1.17579 -0.50463,-0.57271 -0.6476,-0.73731 -0.88476,-1.00586 0.20929,0.23582 0.60438,0.67854 0.89062,1 0.0547,-0.0405 0.1093,-0.0805 0.16407,-0.12109 0.31894,-0.23612 0.69526,-0.86238 1.00781,-0.90039 0.0721,-0.009 0.14144,0.0142 0.20508,0.0801 2.87603,2.97819 5.02077,6.58472 7.53125,9.87695 3.19386,4.18842 0.5453,1.47812 -2.88282,-2.25586 0.77219,0.88783 1.52506,1.79255 2.2461,2.72266 0.15844,0.20424 -0.44025,0.27107 -0.65039,0.42187 -2.94907,2.11378 -5.95241,4.21908 -9.32227,5.55469 v 15.57617 c 0,12.30516 -12.42969,12.30516 -12.42969,0 v -16.42187 c -2.23928,-2.08921 -2.39619,-5.18186 0,-7.45508 v -11.39453 c 0,-3.88441 0.16256,-7.77144 0,-11.65234 -0.24715,-5.90087 -0.81904,-11.78396 -1.22851,-17.67579 -0.40866,-4.02478 -0.79021,-8.05244 -1.22656,-12.07421 -0.38333,-3.53311 -0.80032,-7.06238 -1.23243,-10.58985 -0.18086,-1.4764 -0.52288,-2.93671 -0.60546,-4.42187 -0.45208,-8.12905 0.0193,-5.64514 0.26757,-12.33204 0.14801,-3.9865 0.19782,-7.97477 0.29688,-11.96289 0.0514,-3.32976 0.13011,-6.66016 0.1543,-9.99023 0.0272,-3.76328 0.0166,-7.52571 0,-11.28906 -0.003,-0.80404 -0.003,-1.60778 -0.0293,-2.41211 -1.05245,-4.46111 -2.10249,-8.92255 -3.16406,-13.38086 -1.72638,-7.25028 1.10292,-11.71409 4.77539,-12.5332 0.79612,-8.43655 1.70525,-16.8638 2.60937,-25.28125 0.99126,-8.51308 1.88627,-10.39503 0.51953,-17.47852 -0.29993,-0.61072 -0.55364,-1.29577 -0.76367,-2.03516 -0.18769,-0.24875 -0.32022,-0.51917 -0.47656,-0.78125 -0.67679,-1.13447 -1.30862,-2.29766 -2.01172,-3.41601 -0.39775,-0.63267 -1.12216,-1.10555 -1.28906,-1.83399 -0.77132,-3.36613 -0.98682,-6.83599 -1.48047,-10.2539 0.12984,-2.22983 0.25884,-4.45963 0.38867,-6.68946 0.2572,-4.41722 2.05589,-7.10707 4.20508,-8.21289 -0.18451,-3.3274 -0.36291,-6.65516 -0.55664,-9.98242 -0.34421,-5.91141 -0.67713,-11.82487 -1.05274,-17.73437 -0.0378,-0.59569 -0.67119,-1.44128 -0.20703,-1.78907 -0.088,-0.66895 -0.17237,-1.33794 -0.2539,-2.00781 0.44029,0.0561 0.8931,0.0619 1.33984,0.0918 -0.0656,-1.57722 -0.11826,-2.51673 -0.20898,-5.34961 -0.12919,-4.03359 -0.16898,-8.06875 -0.25391,-12.10352 -0.002,-8.55177 -0.0291,-6.14776 0.12305,-16.46875 0.034,-2.30441 0.13407,-4.60746 0.125,-6.91211 -0.0248,-6.17332 -0.3519,-12.2868 -0.82032,-18.43554 -0.0879,-0.85995 -0.21525,-1.71701 -0.26367,-2.58008 -1.74124,-31.03149 0.74448,10.42843 -0.54883,-15.29688 -1.43413,-28.52654 -0.0974,1.83465 -1.43164,-21.04882 -0.15246,-2.61478 -0.20414,-5.23436 -0.30664,-7.85157 0.043,-3.5416 -0.0897,-3.78821 0.5625,-7.45312 0.14649,-0.82317 0.43,-1.61572 0.6211,-2.42969 0.20934,-0.89164 1.35874,-6.12725 1.5625,-7.20117 0.513,-2.7038 0.97795,-5.41673 1.46679,-8.125 1.07878,-6.24631 1.13838,-6.9789 2.25,-11.49023 -0.0396,-1.928587 -0.0807,-3.856427 -0.11328,-5.785159 -0.0175,-1.203421 -0.008,-2.408622 -0.0527,-3.611328 -0.0497,-1.326342 -0.141,-2.650494 -0.23242,-3.97461 -0.0522,-0.756559 -0.17314,-1.507709 -0.19922,-2.265625 -0.31669,-9.236243 -0.002,-4.513929 -0.10938,-12.576172 -0.0337,-2.526357 -0.12532,-5.052312 -0.1875,-7.578125 -0.12479,-3.2538 -0.17239,-4.711959 -0.19531,-5.478515 0.0117,0.716744 -0.0184,1.139728 -0.20899,-1.074219 -0.0562,-0.05174 -0.0903,-0.143693 -0.11523,-0.259766 -0.099,-0.09336 -0.20346,-0.180093 -0.30078,-0.27539 -0.52593,-0.514927 -0.71109,-1.979605 -0.0117,-2.208985 0.65975,-0.216403 1.3635,-0.294622 2.0332,-0.488281 0.0217,-0.235927 0.026,-0.35459 0.0547,-0.671875 0.0419,-0.462563 0.13892,-1.172507 0.0742,-0.970703 -0.008,-0.160832 -0.0156,-0.321852 -0.0215,-0.482422 -0.0413,-0.0089 -0.0768,-0.0291 -0.11524,-0.04297 -0.17057,0.09274 -0.30846,0.242837 -0.48437,0.326172 -0.0839,0.03972 0.28764,-0.355394 0.30468,-0.414062 -0.45694,-0.303796 -0.63888,-1.086457 -0.43359,-2.546875 -0.18108,-0.499284 -0.28401,-0.97575 0.0879,-1.205078 0.0514,-0.03172 0.10459,-0.06048 0.15625,-0.0918 0.0117,-0.05143 0.0209,-0.09781 0.0332,-0.150391 1.0151,-4.323209 0.99371,-4.275231 3.81055,-4.275391 0.14819,-0.373427 0.30326,-0.749743 0.47266,-1.132812 0.15507,-0.350653 0.2432,-0.841483 0.59961,-0.982422 0.79471,-0.314116 1.66646,-0.52578 2.52539,-0.523437 z m -7.44141,7.064453 c -0.10956,0.48203 -0.19002,0.911892 -0.24414,1.296875 0.12621,0.347985 0.29012,0.706364 0.36328,1.001953 0.0868,0.350657 0.21267,0.690302 0.34961,1.02539 -0.0125,-0.585378 -0.0143,-1.170367 0.004,-1.755859 7.2e-4,-0.02555 -0.003,-0.103438 0.002,-0.07813 0.0947,0.527659 0.1874,1.055937 0.28125,1.583984 0.38257,-0.4849 0.42937,-0.657392 0.85156,-1.158203 0.0825,-0.09782 0.13503,-0.118135 0.21485,-0.208984 0.3264,-1.045858 0.62096,-2.032178 0.92382,-2.994141 -0.91508,0.429692 -1.88045,0.762412 -2.74609,1.28711 z m 0.46875,3.324218 c 9.6e-4,0.04496 0.003,0.08984 0.004,0.134766 0.01,-0.01381 0.0229,-0.0304 0.0332,-0.04492 -0.0123,-0.02997 -0.0248,-0.05981 -0.0371,-0.08984 z m 0.0156,0.650391 c 0.0831,0.01794 0.17162,0.02448 0.26562,0.02344 -0.0353,-0.08347 -0.0705,-0.166655 -0.10547,-0.25 -0.0562,0.03261 -0.10536,0.07766 -0.16211,0.109375 10e-4,0.03905 4.6e-4,0.07811 0.002,0.117187 z m 0.0215,0.482422 c 0.003,0.05665 0.005,0.113381 0.008,0.169922 0.005,0.08946 -2e-5,-0.179961 0,-0.269531 0.0111,-0.04578 -0.0143,0.12032 -0.008,0.09961 z m -1.84961,4.615234 c 0.0335,0.03164 0.0678,0.06232 0.10156,0.09375 -0.0288,-0.340595 -0.0475,-0.508771 -0.084,-0.980468 -0.0224,-0.289331 -0.11293,0.443147 -0.0176,0.886718 z m 0.10156,0.09375 c 0.005,0.05765 0.009,0.111835 0.0137,0.166016 0.0288,0.02656 0.0587,0.05259 0.0977,0.05273 0.0417,1.51e-4 0.0833,-0.002 0.125,-0.002 -0.0792,-0.07181 -0.15807,-0.143871 -0.23633,-0.216797 z m 13.58789,427.291011 -0.006,0.006 c 0.0709,0.0804 0.0484,0.0537 0.125,0.14063 0.55309,0.62787 1.11517,1.24877 1.67969,1.86719 -0.72449,-0.80834 -1.25984,-1.40816 -1.79883,-2.01368 z m -4.0664,-442.804682 c -0.16023,0.04031 -0.32275,0.132436 -0.49219,0.310546 0.15624,-0.111618 0.32218,-0.21644 0.49219,-0.310546 z m 0.88086,0.113281 c 0.21194,0.302873 0.25337,0.479436 0.11914,0.0332 -0.0408,-0.01061 -0.0794,-0.02196 -0.11914,-0.0332 z m 2.02929,1.40625 c -0.042,0.0168 -0.0849,0.03211 -0.12695,0.04883 -0.15603,0.339854 -0.18462,0.741081 -0.28125,1.105469 0.031,-0.02502 0.0618,-0.0481 0.0937,-0.07422 0.21039,-0.172052 0.32892,-0.834176 0.31445,-1.080078 z m 3.33399,3.115234 c 0.16835,0.551598 0.30929,0.995574 0.42187,1.332031 -0.0225,-0.358887 -0.21385,-0.863255 -0.42187,-1.332031 z m -12.9668,4.849609 c -0.23733,0.153474 -0.46359,0.326497 -0.70508,0.472657 0.0215,0.12639 0.0458,0.252398 0.0664,0.378906 0.18646,-0.02141 0.46246,-0.197585 0.68359,-0.279297 -0.03,-0.177876 -0.048,-0.368579 -0.0449,-0.572266 z M 391.62891,171.625 c 0.17788,0.79331 0.47767,1.55844 0.77734,2.31445 0.89074,2.247 1.28835,-1.07006 -0.77734,-2.31445 z m -3.3418,187.85156 c 0.0406,0.90021 0.0668,1.80095 0.10742,2.70117 0.0736,0.0275 0.14578,0.0612 0.21875,0.0918 -0.10112,-0.98329 -0.22337,-1.77291 -0.32617,-2.79297 z" />
      <path
         id="path4686"
         style="color:#000000;fill:#ffffff;stroke-width:3.77953;-inkscape-stroke:none"
         transform="scale(0.26458333)"
         d="m 362.54688,31.580078 v 3.779297 c -59.01865,341.507995 -63.13076,692.416925 0,1042.375025 h 43.79687 c 61.89252,-347.25536 58.70872,-698.26381 0,-1046.154322 z m 7.55859,7.558594 h 28.67969 c 55.18699,348.811238 60.60763,692.993978 0,1031.035128 h -28.67969 c -61.25345,-341.14716 -56.50036,-685.02176 0,-1031.035128 z" />
    </g>
    <g
       id="g7698"
       transform="matrix(0,1.1555785,-0.94163095,0,289.67201,-18.637762)"
       style="fill:#ffffff">
      <path
         id="path5757"
         style="color:#000000;fill:#ffffff;fill-opacity:0;stroke-width:7.55906;-inkscape-stroke:none"
         transform="scale(0.26458333)"
         d="m 383.05859,35.431641 v 6.572265 c 0.10499,-0.0059 0.20969,-0.01005 0.31446,-0.0098 0.19821,5.4e-4 0.39615,0.01238 0.59179,0.03711 0.33597,0.04247 0.60943,0.223204 0.81836,0.425781 0.30374,-0.09531 0.61419,-0.124731 0.91407,-0.05078 0.63919,0.157609 0.88227,0.930118 1.23632,1.529297 0.54487,-0.0879 0.88078,-0.09402 1.49414,-0.210938 -0.42671,0.182994 -0.87078,0.33283 -1.30273,0.50586 0.009,0.130608 0.0399,0.263352 0.0215,0.392578 -0.0882,0.582968 -0.22034,1.16069 -0.40234,1.722656 3.01993,-2.080941 5.25898,-2.738038 4.18945,2.503906 0.4497,1.327691 0.45204,1.120523 0.41993,2.238282 -0.0159,0.517058 -0.0121,1.561052 0.0469,2.27539 -0.042,1.993308 -0.44966,3.797574 -0.10156,5.794922 0.44787,4.232315 0.16762,1.887255 0.67578,5.666016 0.11565,0.859226 0.0541,1.766174 0.36328,2.576172 0.91608,2.400888 1.4063,3.241379 2.66016,5.859375 0.73606,2.076257 1.60403,4.112296 2.20898,6.230468 0.40687,1.42447 0.60368,2.901374 0.81836,4.367188 0.32829,2.243059 0.63436,4.491712 0.80859,6.751953 0.096,1.242667 0,2.493878 0,3.740234 v 10.095704 c 0,6.47483 -2.85951,10.1179 -6.07812,10.92969 -0.21025,5.25046 -0.44807,10.45143 -0.57227,13.74219 -0.0665,1.76164 -0.12978,3.52347 -0.19531,5.28515 0.40029,10.06971 0.87354,20.13612 1.41602,30.19922 0.10896,2.02416 0.31385,4.04344 0.4707,6.06446 0.0711,2.79944 1.83816,6.11602 0.21289,8.39648 -2.68811,3.7718 -4.9166,5.68941 -6.93164,6.24609 0.4078,5.86703 0.6855,11.71193 0.70898,17.60938 0.009,2.27643 -0.091,4.55192 -0.125,6.82812 -0.14815,10.04073 -0.1228,7.74806 -0.125,15.96875 0.0752,3.62624 0.12183,7.25342 0.22657,10.87891 1.88571,3.09605 1.27148,10.7823 1.27148,13.17578 v 26.92188 c 0,0.54726 -0.17395,0.89455 -0.25,1.35937 -2.3e-4,0.16993 0,0.33984 0,0.50977 v 3.10351 c 0.47621,0.0619 0.87671,0.24078 1.03125,0.70508 1.97688,5.93916 -0.12356,12.51809 -0.18555,18.77734 -0.27354,6.78086 -0.36965,9.36607 -0.55273,14.05079 0.80999,9.91914 1.79908,19.82627 2.72852,29.73437 2.70591,28.84692 4.21321,39.96043 7.40234,65.82227 0.23486,0.97799 0.47037,1.95755 0.70508,2.93554 1.15241,4.79891 -3.74396,5.94962 -4.85352,1.14063 -0.26642,-1.15487 -0.53237,-2.30997 -0.79883,-3.46485 -0.20716,-1.6804 -0.29513,-2.62681 -0.49023,-4.20312 v 2.10351 c 0.25789,1.79416 0.29645,3.43936 0,4.80469 v 43.34375 c 0,7.31382 -3.65006,11.00762 -7.34375,11.09571 0.0164,0.34608 0.0559,0.69091 0.0703,1.03711 0.16177,3.88094 0,7.76793 0,11.65234 v 5.43555 c 0.55169,-0.39813 1.14196,-0.70256 1.69531,-1.11329 -0.50463,-0.57271 -0.6476,-0.73731 -0.88476,-1.00586 0.20929,0.23582 0.60438,0.67854 0.89062,1 0.0547,-0.0405 0.1093,-0.0805 0.16407,-0.12109 0.31894,-0.23612 0.69526,-0.86238 1.00781,-0.90039 0.0721,-0.009 0.14144,0.0142 0.20508,0.0801 2.87603,2.97819 5.02077,6.58472 7.53125,9.87695 3.19386,4.18842 0.5453,1.47812 -2.88282,-2.25586 0.77219,0.88783 1.52506,1.79255 2.2461,2.72266 0.15844,0.20424 -0.44025,0.27107 -0.65039,0.42187 -2.94907,2.11378 -5.95241,4.21908 -9.32227,5.55469 v 15.57617 c 0,4.31001 -1.53599,7.07643 -3.51758,8.36719 V 1073.9551 H 402.5625 V 35.431641 Z m 5.21875,450.083979 -0.006,0.006 c 0.0709,0.0804 0.0484,0.0537 0.125,0.14063 0.55309,0.62787 1.11517,1.24877 1.67969,1.86719 -0.72449,-0.80834 -1.25984,-1.40816 -1.79883,-2.01368 z m -4.0664,-442.804682 c -0.16023,0.04031 -0.32275,0.132436 -0.49219,0.310546 0.15624,-0.111618 0.32218,-0.21644 0.49219,-0.310546 z m 0.88086,0.113281 c 0.21194,0.302873 0.25337,0.479436 0.11914,0.0332 -0.0408,-0.01061 -0.0794,-0.02196 -0.11914,-0.0332 z m 2.02929,1.408203 c -0.0426,0.01706 -0.0863,0.03184 -0.1289,0.04883 -0.15508,0.339346 -0.1829,0.739978 -0.2793,1.103516 0.031,-0.02502 0.0618,-0.0481 0.0937,-0.07422 0.20991,-0.171655 0.32827,-0.830872 0.31445,-1.078125 z m 3.33399,3.113281 c 0.16835,0.551598 0.30929,0.995574 0.42187,1.332031 -0.0225,-0.358887 -0.21385,-0.863255 -0.42187,-1.332031 z M 391.62891,171.625 c 0.17788,0.79331 0.47767,1.55844 0.77734,2.31445 0.89074,2.247 1.28835,-1.07006 -0.77734,-2.31445 z m -3.3418,187.85156 c 0.0406,0.90021 0.0668,1.80095 0.10742,2.70117 0.0736,0.0275 0.14578,0.0612 0.21875,0.0918 -0.10112,-0.98329 -0.22337,-1.77291 -0.32617,-2.79297 z" />
    </g>
    <g
       id="rect5184"
       transform="matrix(0,1.1555785,-0.94163095,0,289.66863,-16.026349)"
       style="fill:#ffffff">
      <path
         style="color:#000000;fill:#ffffff;fill-opacity:0;stroke-width:2;-inkscape-stroke:none"
         d="m 85.514008,148.40811 h 32.335602 v 2.30032 H 85.514008 Z"
         id="path5209" />
      <path
         style="color:#000000;fill:#ffffff;-inkscape-stroke:none"
         d="m 84.513672,147.4082 v 1 0 l 34.136768,0.39863 0.0996,-1.39863 z m 1.701249,1.98577 30.819629,0.0142 v -0.65238 l -31.520542,-0.34768 z"
         id="path5211"
         sodipodi:nodetypes="ccccccccccc" />
    </g>
  </g>
</svg>
